<svg width="27" height="27" viewBox="0 0 27 27" fill="none" xmlns="http://www.w3.org/2000/svg">
<g opacity="0.3">
<path fill-rule="evenodd" clip-rule="evenodd" d="M1.16235 13.5C1.16235 6.597 6.75935 1 13.6624 1C20.5654 1 26.1624 6.597 26.1624 13.5C26.1624 20.403 20.5654 26 13.6624 26C6.75935 26 1.16235 20.403 1.16235 13.5ZM22.1624 13.5C22.1624 8.813 18.3494 5 13.6624 5C8.97535 5 5.16235 8.813 5.16235 13.5C5.16235 18.187 8.97535 22 13.6624 22C18.3494 22 22.1624 18.187 22.1624 13.5Z" fill="#B5B5B5"/>
<path d="M13.6624 0.5C6.48321 0.5 0.662354 6.32086 0.662354 13.5H1.66235C1.66235 6.87314 7.0355 1.5 13.6624 1.5V0.5ZM26.6624 13.5C26.6624 6.32086 20.8415 0.5 13.6624 0.5V1.5C20.2892 1.5 25.6624 6.87314 25.6624 13.5H26.6624ZM13.6624 26.5C20.8415 26.5 26.6624 20.6791 26.6624 13.5H25.6624C25.6624 20.1269 20.2892 25.5 13.6624 25.5V26.5ZM0.662354 13.5C0.662354 20.6791 6.48321 26.5 13.6624 26.5V25.5C7.0355 25.5 1.66235 20.1269 1.66235 13.5H0.662354ZM13.6624 5.5C18.0732 5.5 21.6624 9.08914 21.6624 13.5H22.6624C22.6624 8.53686 18.6255 4.5 13.6624 4.5V5.5ZM5.66235 13.5C5.66235 9.08914 9.2515 5.5 13.6624 5.5V4.5C8.69921 4.5 4.66235 8.53686 4.66235 13.5H5.66235ZM13.6624 21.5C9.2515 21.5 5.66235 17.9109 5.66235 13.5H4.66235C4.66235 18.4631 8.69921 22.5 13.6624 22.5V21.5ZM21.6624 13.5C21.6624 17.9109 18.0732 21.5 13.6624 21.5V22.5C18.6255 22.5 22.6624 18.4631 22.6624 13.5H21.6624Z" fill="black"/>
</g>
</svg>
